<?xml version="1.0" encoding="utf-8"?>
<!-- Generator: Adobe Illustrator 19.0.0, SVG Export Plug-In . SVG Version: 6.00 Build 0)  -->
<svg version="1.1" id="Layer_1" xmlns="http://www.w3.org/2000/svg" xmlns:xlink="http://www.w3.org/1999/xlink" x="0px" y="0px"
	 viewBox="-167 349 24 24" style="enable-background:new -167 349 24 24;" xml:space="preserve">
<style type="text/css">
	.st0{fill:#6D2B8E;}
</style>
<path class="st0" d="M-155,349c6.6,0,12,5.4,12,12c0,6.6-5.4,12-12,12c-6.6,0-12-5.4-12-12C-167,354.4-161.6,349-155,349
	C-155,349-155,349-155,349z M-151.3,365h-7.4c0.6,4.3,2.2,7,3.7,7C-153.5,372-151.9,369.3-151.3,365 M-144.8,365h-5.5
	c-0.4,3-1.3,5.4-2.5,6.8C-149.1,371-146.1,368.4-144.8,365 M-159.7,365h-5.5c1.3,3.4,4.3,6,8,6.8C-158.4,370.4-159.3,368-159.7,365
	 M-159.8,358h-5.7c-0.3,1.2-0.7,3.4,0,6h5.7C-160,362.2-160.1,360.1-159.8,358 M-151.2,358h-7.7c-0.2,1.8-0.2,3.9,0,6h7.7
	C-151,362.2-150.9,360.1-151.2,358 M-144.4,358h-5.7c0.1,0.6,0.3,3,0,6h5.7C-143.7,361.4-144.1,359.2-144.4,358 M-157.2,350.2
	c-3.7,0.8-6.7,3.4-8,6.8h5.5C-159.3,354-158.4,351.6-157.2,350.2 M-151.3,357c-0.6-4.3-2.2-7-3.7-7c-1.5,0-3.1,2.7-3.7,7H-151.3z
	 M-152.8,350.2c1.2,1.4,2.1,3.8,2.5,6.8h5.5C-146.1,353.6-149.1,351-152.8,350.2"/>
</svg>
