<?xml version="1.0" encoding="utf-8"?>
<!-- Generator: Adobe Illustrator 19.0.0, SVG Export Plug-In . SVG Version: 6.00 Build 0)  -->
<svg version="1.1" id="Layer_1" xmlns="http://www.w3.org/2000/svg" xmlns:xlink="http://www.w3.org/1999/xlink" x="0px" y="0px"
	 viewBox="-129 310.6 100.4 100.4" style="enable-background:new -129 310.6 100.4 100.4;" xml:space="preserve">
<style type="text/css">
	.st0{fill:#6D2B8E;}
</style>
<g>
	<path class="st0" d="M-70.8,380.6l15-24.1c0-0.1,0.1-0.2,0.1-0.2c2.6-4.2,4-9,4-14c0-14.8-12-26.8-26.8-26.8s-26.8,12-26.8,26.8
		c0,4.9,1.4,9.7,4,14c0,0.1,0.1,0.1,0.1,0.2l14.5,24.2c-11.2,1.6-18.6,6.2-18.6,11.8c0,6.9,11.8,12.4,26.8,12.4s26.8-5.4,26.8-12.4
		C-51.7,386.9-59.4,382.2-70.8,380.6z M-98.6,354.9c-2.4-3.8-3.7-8.2-3.7-12.6c0-13.1,10.7-23.8,23.8-23.8
		c13.1,0,23.8,10.7,23.8,23.8c0,4.5-1.3,8.8-3.7,12.6c-0.1,0.1-0.1,0.2-0.1,0.2l-15.8,25.5c-0.2,0.4-0.3,0.4-0.6,0.9l-4,6.4
		l-19.6-32.8C-98.5,355.1-98.6,355-98.6,354.9z M-78.5,401.9c-14,0-23.8-4.9-23.8-9.4c0-4,7.4-7.8,17.3-9l4.9,8.2
		c0.3,0.4,0.8,0.7,1.3,0.7c0,0,0,0,0,0c0.5,0,1-0.3,1.3-0.7l5.1-8.2c10.1,1.1,17.8,5,17.8,9C-54.7,396.9-64.5,401.9-78.5,401.9z"/>
	<path class="st0" d="M-68.8,342.3c0-5.4-4.4-9.7-9.7-9.7s-9.7,4.4-9.7,9.7s4.4,9.7,9.7,9.7S-68.8,347.7-68.8,342.3z M-85.3,342.3
		c0-3.7,3-6.7,6.7-6.7s6.7,3,6.7,6.7c0,3.7-3,6.7-6.7,6.7S-85.3,346-85.3,342.3z"/>
</g>
</svg>
