<?xml version="1.0" encoding="utf-8"?>
<!-- Generator: Adobe Illustrator 19.0.0, SVG Export Plug-In . SVG Version: 6.00 Build 0)  -->
<svg version="1.1" id="Layer_1" xmlns="http://www.w3.org/2000/svg" xmlns:xlink="http://www.w3.org/1999/xlink" x="0px" y="0px"
	 viewBox="-129 310.6 100.4 100.4" style="enable-background:new -129 310.6 100.4 100.4;" xml:space="preserve">
<style type="text/css">
	.st0{fill:#6D2B8E;}
</style>
<path class="st0" d="M-35.9,386.9c0-0.1,0.1-0.3,0.1-0.5v-53.1c0-0.2,0-0.3-0.1-0.5c0,0,0,0,0-0.1c-0.1-0.2-0.2-0.3-0.3-0.5
	c0,0,0,0,0,0c0,0,0,0,0,0c-0.1-0.1-0.3-0.2-0.4-0.3c0,0,0,0,0,0c-0.2-0.1-0.3-0.1-0.5-0.1c0,0,0,0-0.1,0c0,0,0,0,0,0h-83.2
	c0,0,0,0,0,0c0,0,0,0,0,0c-0.2,0-0.4,0.1-0.5,0.1c0,0,0,0,0,0c-0.2,0.1-0.3,0.2-0.4,0.3c0,0,0,0,0,0c0,0,0,0,0,0
	c-0.1,0.1-0.2,0.3-0.3,0.5c0,0,0,0,0,0.1c0,0.1-0.1,0.3-0.1,0.5v53.1c0,0.2,0,0.3,0.1,0.5c0,0,0,0,0,0.1c0.1,0.2,0.2,0.3,0.3,0.5
	c0,0,0,0,0,0c0,0,0,0,0,0c0,0.1,0.1,0.1,0.2,0.1c0,0,0,0,0.1,0.1c0.1,0,0.1,0.1,0.2,0.1c0,0,0,0,0.1,0c0.2,0.1,0.4,0.1,0.6,0.1h83.2
	c0.2,0,0.4,0,0.6-0.1c0,0,0.1,0,0.1,0c0.1,0,0.1-0.1,0.2-0.1c0,0,0.1,0,0.1-0.1c0.1,0,0.1-0.1,0.1-0.1c0,0,0,0,0,0c0,0,0,0,0,0
	C-36.1,387.3-36,387.1-35.9,386.9C-35.9,386.9-35.9,386.9-35.9,386.9z M-119,336.7l25.2,23.1L-119,383V336.7z M-67.3,358.6
	c-0.1,0.1-0.2,0.1-0.3,0.2c0,0,0,0.1-0.1,0.1l-11.3,10.3l-37.7-34.5h75.5L-67.3,358.6z M-91.6,361.8l11.6,10.6
	c0.3,0.3,0.6,0.4,1,0.4s0.7-0.1,1-0.4l11.5-10.5l25.2,23h-75.5L-91.6,361.8z M-64.2,359.9l25.4-23.2V383L-64.2,359.9z"/>
</svg>
