<?xml version="1.0" encoding="utf-8"?>
<!-- Generator: Adobe Illustrator 19.0.0, SVG Export Plug-In . SVG Version: 6.00 Build 0)  -->
<svg version="1.1" id="Icons" xmlns="http://www.w3.org/2000/svg" xmlns:xlink="http://www.w3.org/1999/xlink" x="0px" y="0px"
	 viewBox="-163 345 32 32" style="enable-background:new -163 345 32 32;" xml:space="preserve">
<style type="text/css">
	.st0{fill:none;stroke:#6D2B8E;stroke-width:2;stroke-linecap:round;stroke-linejoin:round;stroke-miterlimit:10;}
</style>
<path class="st0" d="M-135,365.6v4.4c0,1.1-0.9,2-2,2h-20c-1.1,0-2-0.9-2-2v-4.4"/>
<path class="st0" d="M-147,369L-147,369c-1.1,0-2-0.9-2-2v-3h4v3C-145,368.1-145.9,369-147,369z"/>
<path class="st0" d="M-149,367h-7c-2.2,0-4-1.8-4-4v-8c0-1.1,0.9-2,2-2h22c1.1,0,2,0.9,2,2v8c0,2.2-1.8,4-4,4h-7"/>
<path class="st0" d="M-143,353h-8v-2c0-1.1,0.9-2,2-2h4c1.1,0,2,0.9,2,2V353z"/>
<line class="st0" x1="-156" y1="373" x2="-156" y2="372"/>
<line class="st0" x1="-138" y1="373" x2="-138" y2="372"/>
</svg>
